<svg xmlns="http://www.w3.org/2000/svg" width="512" height="512" viewBox="0 0 512 512"><rect width="512" height="512" rx="64" fill="#041326"/><defs><linearGradient id="b" x1="0" y1="0" x2="1" y2="1"><stop stop-color="#052447"/><stop offset="1" stop-color="#020914"/></linearGradient><linearGradient id="r" x1="0" y1="0" x2="0" y2="1"><stop stop-color="#ff314b"/><stop offset="1" stop-color="#a90016"/></linearGradient><linearGradient id="g" x1="0" y1="0" x2="0" y2="1"><stop stop-color="#fff0a5"/><stop offset=".35" stop-color="#ffc928"/><stop offset="1" stop-color="#d99000"/></linearGradient><filter id="glow"><feGaussianBlur stdDeviation="7" result="b"/><feMerge><feMergeNode in="b"/><feMergeNode in="SourceGraphic"/></feMerge></filter></defs><rect x="9" y="9" width="494" height="494" rx="58" fill="url(#b)" stroke="#27c8ff" stroke-width="6" filter="url(#glow)"/><circle cx="256" cy="232" r="160" fill="none" stroke="#0878cc" stroke-width="5" opacity=".45"/><path d="M53 180 L232 226 L53 275 Z" fill="#ff243d" opacity=".45" filter="url(#glow)"/><path d="M459 180 L280 226 L459 275 Z" fill="#ff243d" opacity=".45" filter="url(#glow)"/><path d="M206 101 L224 62 L256 88 L288 62 L306 101 L276 93 L256 111 L236 93 Z" fill="url(#g)" stroke="#ffe07a" stroke-width="3" filter="url(#glow)"/><circle cx="224" cy="61" r="7" fill="#ffd842"/><circle cx="256" cy="49" r="7" fill="#ffd842"/><circle cx="288" cy="61" r="7" fill="#ffd842"/><g filter="url(#glow)"><polygon points="222,176 290,176 306,357 206,357" fill="#f7f7f7" stroke="#ff3b44" stroke-width="4"/><polygon points="214,257 298,257 302,300 210,300" fill="#d71824"/><rect x="221" y="157" width="70" height="42" rx="7" fill="#fff4e8" stroke="#d41722" stroke-width="7"/><path d="M216 158 L256 133 L296 158 Z" fill="#d81b29"/><circle cx="256" cy="132" r="7" fill="#e01927"/><rect x="247" y="213" width="18" height="35" rx="9" fill="#aa0014" stroke="#ff8b3b" stroke-width="2"/><rect x="244" y="318" width="24" height="39" rx="12" fill="#8d0012" stroke="#ff8b3b" stroke-width="2"/></g><path d="M130 366 L171 333 L216 344 L254 325 L297 346 L340 332 L384 366 Z" fill="#05162c" stroke="#0b62b5" stroke-width="3"/><rect x="126" y="353" width="260" height="73" rx="22" fill="#07101d" stroke="#f3b529" stroke-width="4"/><text x="256" y="402" text-anchor="middle" font-family="Arial,Helvetica,sans-serif" font-size="54" font-weight="900" fill="#f7f7f7">TOP-<tspan fill="#ffc633">3</tspan></text><g font-family="Arial,Helvetica,sans-serif" font-size="58" font-weight="900" text-anchor="middle" fill="#ffd347" filter="url(#glow)"><rect x="138" y="420" width="72" height="70" rx="16" fill="#090b0f" stroke="#f0b329" stroke-width="4"/><rect x="220" y="420" width="72" height="70" rx="16" fill="#090b0f" stroke="#f0b329" stroke-width="4"/><rect x="302" y="420" width="72" height="70" rx="16" fill="#090b0f" stroke="#f0b329" stroke-width="4"/><text x="174" y="478">7</text><text x="256" y="478">7</text><text x="338" y="478">7</text></g></svg>